<?xml version="1.0" encoding="utf-8"?>
<!-- Generator: Adobe Illustrator 19.0.0, SVG Export Plug-In . SVG Version: 6.00 Build 0)  -->
<svg version="1.1" id="Capa_1" xmlns="http://www.w3.org/2000/svg" xmlns:xlink="http://www.w3.org/1999/xlink" x="0px" y="0px"
	 viewBox="0 0 292 293" style="enable-background:new 0 0 292 293;" xml:space="preserve">
<style type="text/css">
	.st0{fill:#FFFFFF;fill-opacity:0.2;}
	.st1{fill:#FFFFFF;}
	.st2{fill:#F1E52B;}
	.st3{fill:url(#XMLID_79_);}
	.st4{fill:#F1F1F1;}
	.st5{opacity:0.43;fill:#B3B3B2;}
	.st6{fill:#585756;}
	.st7{fill:#E4264D;}
</style>
<path id="XMLID_493_" class="st0" d="M214.2,201.2h-128c-6.6,0-12,5.4-12,12v1c0-6.6,5.4-12,12-12h128c6.6,0,12,5.4,12,12v-1
	C226.2,206.6,220.8,201.2,214.2,201.2z"/>
<circle id="XMLID_231_" class="st1" cx="140.6" cy="103.7" r="4.9"/>
<path id="XMLID_178_" class="st2" d="M242.4,108.2"/>
<linearGradient id="XMLID_79_" gradientUnits="userSpaceOnUse" x1="215.8598" y1="111.495" x2="215.8598" y2="111.495">
	<stop  offset="0" style="stop-color:#1D1D1B"/>
	<stop  offset="1" style="stop-color:#FFFFFF"/>
</linearGradient>
<path id="XMLID_169_" class="st3" d="M215.9,111.5"/>
<g id="XMLID_149_">
	<path id="XMLID_90_" class="st4" d="M233.5,29.6h-90.4c-66.4,0-120.7,54.3-120.7,120.7v2.1c0,66.2,54.2,120.4,120.4,120.4h2.1
		c66.4,0,120.7-54.3,120.7-120.7V61.6C265.5,44,251.1,29.6,233.5,29.6z"/>
	<path id="XMLID_88_" class="st5" d="M143.1,174.7l24,22.1h62.4l6-13.6l-11.6-26.6l-2.8-4.2c-15.4-18.1-30.7-36.3-46.1-54.4
		C164.3,123.5,153.7,149.1,143.1,174.7z"/>
	<g id="XMLID_86_">
		<polygon id="XMLID_14_" class="st6" points="115,125.9 143.9,176 143.9,142.6 		"/>
	</g>
	<g id="XMLID_81_">
		<polygon id="XMLID_15_" class="st1" points="172.8,125.9 143.9,176 143.9,142.6 		"/>
	</g>
	<path id="XMLID_168_" class="st7" d="M143.9,75.2c-18.5,0-33.5,15-33.5,33.5c0,18.5,15,33.5,33.5,33.5c18.5,0,33.5-15,33.5-33.5
		C177.5,90.3,162.4,75.2,143.9,75.2z M143.9,117.2c-4.4,0-7.9-3.5-7.9-7.9c0-4.4,3.5-7.9,7.9-7.9c4.4,0,7.9,3.5,7.9,7.9
		C151.8,113.7,148.3,117.2,143.9,117.2z"/>
	<path id="XMLID_80_" class="st5" d="M262.7,176.1l-49.4-50c6.6,16.4,13.2,32.7,19.7,49.1l3.7,13.9l-9.3,9.5H61.2l-2.7,3
		c23.5,23.2,47,46.3,70.5,69.5c4.8,0.6,9.7,0.9,14.6,0.9l0,0C201.8,272,250.7,230.7,262.7,176.1z"/>
	<path id="XMLID_1_" class="st7" d="M238.5,181.1L218,131.7c-4-9.7-15.4-17.3-25.9-17.3h-8.6c-0.5,2.8-1.2,5.6-2.3,8.2H192
		c7.2,0,15.6,5.6,18.4,12.3l20.5,49.4v0c1.1,2.6,1.1,5,0,6.6c-1.1,1.6-3.2,2.5-6.1,2.5H63c-2.8,0-5-0.9-6.1-2.5
		c-1.1-1.6-1.1-4,0-6.6l20.5-49.4c2.8-6.6,11.2-12.3,18.3-12.3h11.1c-1.1-2.6-1.8-5.4-2.3-8.2h-8.8c-10.5,0-21.9,7.6-25.9,17.3
		l-20.5,49.4c-2.1,5.2-1.9,10.4,0.7,14.3c2.6,3.9,7.3,6.2,12.9,6.2h161.8c5.6,0,10.3-2.2,12.9-6.2
		C240.3,191.5,240.6,186.3,238.5,181.1z"/>
</g>
</svg>
